<?xml version="1.0" encoding="UTF-8" standalone="no"?><!-- Generator: Gravit.io --><svg xmlns="http://www.w3.org/2000/svg" xmlns:xlink="http://www.w3.org/1999/xlink" style="isolation:isolate" viewBox="0 0 300 80" width="300pt" height="80pt"><defs><clipPath id="_clipPath_NIeBxKFYdqxsMNnj1ZtP9D07itwt1Wik"><rect width="300" height="80"/></clipPath></defs><g clip-path="url(#_clipPath_NIeBxKFYdqxsMNnj1ZtP9D07itwt1Wik)"><g style="isolation:isolate"/><g style="isolation:isolate"><path d=" M 18.97 60.745 L 18.97 60.745 L 18.97 60.745 Q 15.1 60.745 12.962 59.125 L 12.962 59.125 L 12.962 59.125 Q 10.825 57.505 9.993 54.76 L 9.993 54.76 L 9.993 54.76 Q 9.16 52.015 9.16 48.64 L 9.16 48.64 L 9.16 35.77 L 9.16 35.77 Q 9.16 32.08 9.993 29.335 L 9.993 29.335 L 9.993 29.335 Q 10.825 26.59 12.962 25.082 L 12.962 25.082 L 12.962 25.082 Q 15.1 23.575 18.97 23.575 L 18.97 23.575 L 18.97 23.575 Q 22.39 23.575 24.393 24.835 L 24.393 24.835 L 24.393 24.835 Q 26.395 26.095 27.273 28.435 L 27.273 28.435 L 27.273 28.435 Q 28.15 30.775 28.15 34.06 L 28.15 34.06 L 28.15 36.94 L 23.335 36.94 L 23.335 34.375 L 23.335 34.375 Q 23.335 32.35 23.133 30.797 L 23.133 30.797 L 23.133 30.797 Q 22.93 29.245 22.03 28.39 L 22.03 28.39 L 22.03 28.39 Q 21.13 27.535 19.015 27.535 L 19.015 27.535 L 19.015 27.535 Q 16.855 27.535 15.865 28.457 L 15.865 28.457 L 15.865 28.457 Q 14.875 29.38 14.583 31.068 L 14.583 31.068 L 14.583 31.068 Q 14.29 32.755 14.29 35.005 L 14.29 35.005 L 14.29 49.45 L 14.29 49.45 Q 14.29 52.195 14.74 53.793 L 14.74 53.793 L 14.74 53.793 Q 15.19 55.39 16.225 56.065 L 16.225 56.065 L 16.225 56.065 Q 17.26 56.74 19.015 56.74 L 19.015 56.74 L 19.015 56.74 Q 21.085 56.74 21.985 55.817 L 21.985 55.817 L 21.985 55.817 Q 22.885 54.895 23.11 53.275 L 23.11 53.275 L 23.11 53.275 Q 23.335 51.655 23.335 49.495 L 23.335 49.495 L 23.335 46.795 L 28.15 46.795 L 28.15 49.495 L 28.15 49.495 Q 28.15 52.825 27.34 55.367 L 27.34 55.367 L 27.34 55.367 Q 26.53 57.91 24.55 59.327 L 24.55 59.327 L 24.55 59.327 Q 22.57 60.745 18.97 60.745 Z  M 39.76 60.7 L 39.76 60.7 L 39.76 60.7 Q 36.88 60.7 35.215 59.53 L 35.215 59.53 L 35.215 59.53 Q 33.55 58.36 32.853 56.2 L 32.853 56.2 L 32.853 56.2 Q 32.155 54.04 32.155 51.115 L 32.155 51.115 L 32.155 43.555 L 32.155 43.555 Q 32.155 40.63 32.853 38.47 L 32.853 38.47 L 32.853 38.47 Q 33.55 36.31 35.215 35.14 L 35.215 35.14 L 35.215 35.14 Q 36.88 33.97 39.76 33.97 L 39.76 33.97 L 39.76 33.97 Q 42.64 33.97 44.283 35.14 L 44.283 35.14 L 44.283 35.14 Q 45.925 36.31 46.623 38.47 L 46.623 38.47 L 46.623 38.47 Q 47.32 40.63 47.32 43.555 L 47.32 43.555 L 47.32 51.115 L 47.32 51.115 Q 47.32 54.04 46.623 56.2 L 46.623 56.2 L 46.623 56.2 Q 45.925 58.36 44.283 59.53 L 44.283 59.53 L 44.283 59.53 Q 42.64 60.7 39.76 60.7 Z  M 39.76 57.145 L 39.76 57.145 L 39.76 57.145 Q 41.155 57.145 41.718 56.335 L 41.718 56.335 L 41.718 56.335 Q 42.28 55.525 42.393 54.198 L 42.393 54.198 L 42.393 54.198 Q 42.505 52.87 42.505 51.43 L 42.505 51.43 L 42.505 43.285 L 42.505 43.285 Q 42.505 41.8 42.393 40.495 L 42.393 40.495 L 42.393 40.495 Q 42.28 39.19 41.718 38.358 L 41.718 38.358 L 41.718 38.358 Q 41.155 37.525 39.76 37.525 L 39.76 37.525 L 39.76 37.525 Q 38.365 37.525 37.78 38.358 L 37.78 38.358 L 37.78 38.358 Q 37.195 39.19 37.082 40.495 L 37.082 40.495 L 37.082 40.495 Q 36.97 41.8 36.97 43.285 L 36.97 43.285 L 36.97 51.43 L 36.97 51.43 Q 36.97 52.87 37.082 54.198 L 37.082 54.198 L 37.082 54.198 Q 37.195 55.525 37.78 56.335 L 37.78 56.335 L 37.78 56.335 Q 38.365 57.145 39.76 57.145 Z  M 56.545 60.34 L 51.73 60.34 L 51.73 34.33 L 56.545 34.33 L 56.545 36.895 L 56.545 36.895 Q 57.85 35.68 59.425 34.825 L 59.425 34.825 L 59.425 34.825 Q 61 33.97 62.89 33.97 L 62.89 33.97 L 62.89 33.97 Q 64.465 33.97 65.298 34.78 L 65.298 34.78 L 65.298 34.78 Q 66.13 35.59 66.468 36.805 L 66.468 36.805 L 66.468 36.805 Q 66.805 38.02 66.805 39.28 L 66.805 39.28 L 66.805 60.34 L 61.99 60.34 L 61.99 40.675 L 61.99 40.675 Q 61.99 39.28 61.585 38.515 L 61.585 38.515 L 61.585 38.515 Q 61.18 37.75 59.92 37.75 L 59.92 37.75 L 59.92 37.75 Q 59.11 37.75 58.232 38.223 L 58.232 38.223 L 58.232 38.223 Q 57.355 38.695 56.545 39.37 L 56.545 39.37 L 56.545 60.34 L 56.545 60.34 Z  M 78.415 60.7 L 78.415 60.7 L 78.415 60.7 Q 76.39 60.7 75.152 59.935 L 75.152 59.935 L 75.152 59.935 Q 73.915 59.17 73.352 57.775 L 73.352 57.775 L 73.352 57.775 Q 72.79 56.38 72.79 54.49 L 72.79 54.49 L 72.79 37.525 L 70.045 37.525 L 70.045 34.33 L 72.79 34.33 L 72.79 26.725 L 77.605 26.725 L 77.605 34.33 L 81.79 34.33 L 81.79 37.525 L 77.605 37.525 L 77.605 54.175 L 77.605 54.175 Q 77.605 55.705 78.1 56.357 L 78.1 56.357 L 78.1 56.357 Q 78.595 57.01 79.99 57.01 L 79.99 57.01 L 79.99 57.01 Q 80.35 57.01 80.822 56.965 L 80.822 56.965 L 80.822 56.965 Q 81.295 56.92 81.745 56.875 L 81.745 56.875 L 81.745 60.43 L 81.745 60.43 Q 80.845 60.565 80.08 60.632 L 80.08 60.632 L 80.08 60.632 Q 79.315 60.7 78.415 60.7 Z  M 90.025 60.7 L 90.025 60.7 L 90.025 60.7 Q 88.495 60.7 87.325 59.823 L 87.325 59.823 L 87.325 59.823 Q 86.155 58.945 85.48 57.573 L 85.48 57.573 L 85.48 57.573 Q 84.805 56.2 84.805 54.67 L 84.805 54.67 L 84.805 54.67 Q 84.805 52.24 85.615 50.575 L 85.615 50.575 L 85.615 50.575 Q 86.425 48.91 87.842 47.762 L 87.842 47.762 L 87.842 47.762 Q 89.26 46.615 91.128 45.76 L 91.128 45.76 L 91.128 45.76 Q 92.995 44.905 95.065 44.095 L 95.065 44.095 L 95.065 42.25 L 95.065 42.25 Q 95.065 40.675 94.885 39.64 L 94.885 39.64 L 94.885 39.64 Q 94.705 38.605 94.142 38.088 L 94.142 38.088 L 94.142 38.088 Q 93.58 37.57 92.455 37.57 L 92.455 37.57 L 92.455 37.57 Q 91.465 37.57 90.857 38.02 L 90.857 38.02 L 90.857 38.02 Q 90.25 38.47 89.98 39.302 L 89.98 39.302 L 89.98 39.302 Q 89.71 40.135 89.71 41.26 L 89.71 41.26 L 89.71 42.565 L 84.94 42.385 L 84.94 42.385 Q 85.03 38.065 86.92 36.018 L 86.92 36.018 L 86.92 36.018 Q 88.81 33.97 92.77 33.97 L 92.77 33.97 L 92.77 33.97 Q 96.64 33.97 98.26 36.085 L 98.26 36.085 L 98.26 36.085 Q 99.88 38.2 99.88 42.205 L 99.88 42.205 L 99.88 54.085 L 99.88 54.085 Q 99.88 55.3 99.947 56.425 L 99.947 56.425 L 99.947 56.425 Q 100.015 57.55 100.128 58.518 L 100.128 58.518 L 100.128 58.518 Q 100.24 59.485 100.33 60.34 L 100.33 60.34 L 95.92 60.34 L 95.92 60.34 Q 95.785 59.62 95.583 58.518 L 95.583 58.518 L 95.583 58.518 Q 95.38 57.415 95.29 56.515 L 95.29 56.515 L 95.29 56.515 Q 94.84 58.045 93.557 59.372 L 93.557 59.372 L 93.557 59.372 Q 92.275 60.7 90.025 60.7 Z  M 91.915 56.56 L 91.915 56.56 L 91.915 56.56 Q 92.635 56.56 93.265 56.155 L 93.265 56.155 L 93.265 56.155 Q 93.895 55.75 94.39 55.232 L 94.39 55.232 L 94.39 55.232 Q 94.885 54.715 95.065 54.4 L 95.065 54.4 L 95.065 47.02 L 95.065 47.02 Q 93.94 47.65 92.95 48.28 L 92.95 48.28 L 92.95 48.28 Q 91.96 48.91 91.217 49.607 L 91.217 49.607 L 91.217 49.607 Q 90.475 50.305 90.047 51.183 L 90.047 51.183 L 90.047 51.183 Q 89.62 52.06 89.62 53.185 L 89.62 53.185 L 89.62 53.185 Q 89.62 54.76 90.205 55.66 L 90.205 55.66 L 90.205 55.66 Q 90.79 56.56 91.915 56.56 Z  M 111.625 60.7 L 111.625 60.7 L 111.625 60.7 Q 108.43 60.7 106.788 59.418 L 106.788 59.418 L 106.788 59.418 Q 105.145 58.135 104.583 55.795 L 104.583 55.795 L 104.583 55.795 Q 104.02 53.455 104.02 50.35 L 104.02 50.35 L 104.02 44.365 L 104.02 44.365 Q 104.02 41.08 104.605 38.762 L 104.605 38.762 L 104.605 38.762 Q 105.19 36.445 106.833 35.207 L 106.833 35.207 L 106.833 35.207 Q 108.475 33.97 111.625 33.97 L 111.625 33.97 L 111.625 33.97 Q 114.46 33.97 116.012 34.893 L 116.012 34.893 L 116.012 34.893 Q 117.565 35.815 118.15 37.637 L 118.15 37.637 L 118.15 37.637 Q 118.735 39.46 118.735 42.16 L 118.735 42.16 L 118.735 43.69 L 114.37 43.69 L 114.37 42.115 L 114.37 42.115 Q 114.37 40.405 114.145 39.415 L 114.145 39.415 L 114.145 39.415 Q 113.92 38.425 113.335 37.975 L 113.335 37.975 L 113.335 37.975 Q 112.75 37.525 111.67 37.525 L 111.67 37.525 L 111.67 37.525 Q 110.5 37.525 109.87 38.065 L 109.87 38.065 L 109.87 38.065 Q 109.24 38.605 109.038 39.887 L 109.038 39.887 L 109.038 39.887 Q 108.835 41.17 108.835 43.375 L 108.835 43.375 L 108.835 51.565 L 108.835 51.565 Q 108.835 54.895 109.465 56.02 L 109.465 56.02 L 109.465 56.02 Q 110.095 57.145 111.715 57.145 L 111.715 57.145 L 111.715 57.145 Q 112.93 57.145 113.492 56.582 L 113.492 56.582 L 113.492 56.582 Q 114.055 56.02 114.212 54.985 L 114.212 54.985 L 114.212 54.985 Q 114.37 53.95 114.37 52.645 L 114.37 52.645 L 114.37 50.53 L 118.735 50.53 L 118.735 52.33 L 118.735 52.33 Q 118.735 54.94 118.128 56.83 L 118.128 56.83 L 118.128 56.83 Q 117.52 58.72 115.968 59.71 L 115.968 59.71 L 115.968 59.71 Q 114.415 60.7 111.625 60.7 Z  M 129.94 60.7 L 129.94 60.7 L 129.94 60.7 Q 127.915 60.7 126.678 59.935 L 126.678 59.935 L 126.678 59.935 Q 125.44 59.17 124.878 57.775 L 124.878 57.775 L 124.878 57.775 Q 124.315 56.38 124.315 54.49 L 124.315 54.49 L 124.315 37.525 L 121.57 37.525 L 121.57 34.33 L 124.315 34.33 L 124.315 26.725 L 129.13 26.725 L 129.13 34.33 L 133.315 34.33 L 133.315 37.525 L 129.13 37.525 L 129.13 54.175 L 129.13 54.175 Q 129.13 55.705 129.625 56.357 L 129.625 56.357 L 129.625 56.357 Q 130.12 57.01 131.515 57.01 L 131.515 57.01 L 131.515 57.01 Q 131.875 57.01 132.348 56.965 L 132.348 56.965 L 132.348 56.965 Q 132.82 56.92 133.27 56.875 L 133.27 56.875 L 133.27 60.43 L 133.27 60.43 Q 132.37 60.565 131.605 60.632 L 131.605 60.632 L 131.605 60.632 Q 130.84 60.7 129.94 60.7 Z " fill="rgb(0,0,0)"/></g></g></svg>