<?xml version="1.0" encoding="UTF-8" standalone="no"?><!-- Generator: Gravit.io --><svg xmlns="http://www.w3.org/2000/svg" xmlns:xlink="http://www.w3.org/1999/xlink" style="isolation:isolate" viewBox="0 0 300 80" width="300pt" height="80pt"><defs><clipPath id="_clipPath_qihrSxqjA8cVL0zrLqURZ1izG1P3fmWl"><rect width="300" height="80"/></clipPath></defs><g clip-path="url(#_clipPath_qihrSxqjA8cVL0zrLqURZ1izG1P3fmWl)"><g style="isolation:isolate"/><g style="isolation:isolate"><path d=" M 18.43 60.745 L 18.43 60.745 L 18.43 60.745 Q 15.28 60.745 13.188 59.395 L 13.188 59.395 L 13.188 59.395 Q 11.095 58.045 10.015 55.66 L 10.015 55.66 L 10.015 55.66 Q 8.935 53.275 8.755 50.125 L 8.755 50.125 L 13.255 48.91 L 13.255 48.91 Q 13.39 50.845 13.863 52.645 L 13.863 52.645 L 13.863 52.645 Q 14.335 54.445 15.415 55.592 L 15.415 55.592 L 15.415 55.592 Q 16.495 56.74 18.43 56.74 L 18.43 56.74 L 18.43 56.74 Q 20.41 56.74 21.423 55.637 L 21.423 55.637 L 21.423 55.637 Q 22.435 54.535 22.435 52.465 L 22.435 52.465 L 22.435 52.465 Q 22.435 49.99 21.31 48.482 L 21.31 48.482 L 21.31 48.482 Q 20.185 46.975 18.475 45.445 L 18.475 45.445 L 12.355 40.045 L 12.355 40.045 Q 10.555 38.47 9.7 36.602 L 9.7 36.602 L 9.7 36.602 Q 8.845 34.735 8.845 31.99 L 8.845 31.99 L 8.845 31.99 Q 8.845 27.985 11.14 25.78 L 11.14 25.78 L 11.14 25.78 Q 13.435 23.575 17.395 23.575 L 17.395 23.575 L 17.395 23.575 Q 19.555 23.575 21.197 24.137 L 21.197 24.137 L 21.197 24.137 Q 22.84 24.7 23.943 25.87 L 23.943 25.87 L 23.943 25.87 Q 25.045 27.04 25.697 28.818 L 25.697 28.818 L 25.697 28.818 Q 26.35 30.595 26.575 32.98 L 26.575 32.98 L 22.255 34.15 L 22.255 34.15 Q 22.12 32.35 21.715 30.842 L 21.715 30.842 L 21.715 30.842 Q 21.31 29.335 20.298 28.412 L 20.298 28.412 L 20.298 28.412 Q 19.285 27.49 17.395 27.49 L 17.395 27.49 L 17.395 27.49 Q 15.505 27.49 14.448 28.502 L 14.448 28.502 L 14.448 28.502 Q 13.39 29.515 13.39 31.495 L 13.39 31.495 L 13.39 31.495 Q 13.39 33.16 13.953 34.24 L 13.953 34.24 L 13.953 34.24 Q 14.515 35.32 15.775 36.445 L 15.775 36.445 L 21.94 41.845 L 21.94 41.845 Q 24.01 43.645 25.585 46.143 L 25.585 46.143 L 25.585 46.143 Q 27.16 48.64 27.16 52.06 L 27.16 52.06 L 27.16 52.06 Q 27.16 54.76 26.035 56.717 L 26.035 56.717 L 26.035 56.717 Q 24.91 58.675 22.953 59.71 L 22.953 59.71 L 22.953 59.71 Q 20.995 60.745 18.43 60.745 Z  M 35.62 60.295 L 30.805 60.295 L 30.805 23.845 L 35.62 23.845 L 35.62 45.58 L 42.64 34.33 L 47.68 34.33 L 41.56 44.5 L 47.5 60.34 L 42.685 60.34 L 37.825 47.02 L 35.62 50.35 L 35.62 60.295 L 35.62 60.295 Z  M 55.15 60.34 L 50.335 60.34 L 50.335 34.33 L 55.15 34.33 L 55.15 60.34 L 55.15 60.34 Z  M 55.15 30.46 L 50.335 30.46 L 50.335 25.42 L 55.15 25.42 L 55.15 30.46 L 55.15 30.46 Z  M 65.59 60.34 L 60.775 60.34 L 60.775 23.89 L 65.59 23.89 L 65.59 60.34 L 65.59 60.34 Z  M 76.66 60.7 L 76.66 60.7 L 76.66 60.7 Q 73.465 60.7 71.53 58.698 L 71.53 58.698 L 71.53 58.698 Q 69.595 56.695 69.325 53.41 L 69.325 53.41 L 73.33 52.195 L 73.33 52.195 Q 73.69 54.67 74.545 55.908 L 74.545 55.908 L 74.545 55.908 Q 75.4 57.145 77.065 57.145 L 77.065 57.145 L 77.065 57.145 Q 78.37 57.145 79.045 56.402 L 79.045 56.402 L 79.045 56.402 Q 79.72 55.66 79.72 54.4 L 79.72 54.4 L 79.72 54.4 Q 79.72 53.275 79.225 52.375 L 79.225 52.375 L 79.225 52.375 Q 78.73 51.475 77.605 50.53 L 77.605 50.53 L 73.15 46.705 L 73.15 46.705 Q 71.8 45.535 70.878 44.095 L 70.878 44.095 L 70.878 44.095 Q 69.955 42.655 69.955 40.36 L 69.955 40.36 L 69.955 40.36 Q 69.955 38.29 70.788 36.873 L 70.788 36.873 L 70.788 36.873 Q 71.62 35.455 73.128 34.713 L 73.128 34.713 L 73.128 34.713 Q 74.635 33.97 76.66 33.97 L 76.66 33.97 L 76.66 33.97 Q 79.765 33.97 81.408 35.973 L 81.408 35.973 L 81.408 35.973 Q 83.05 37.975 83.275 40.81 L 83.275 40.81 L 80.035 42.025 L 80.035 42.025 Q 79.855 40.675 79.495 39.662 L 79.495 39.662 L 79.495 39.662 Q 79.135 38.65 78.505 38.088 L 78.505 38.088 L 78.505 38.088 Q 77.875 37.525 76.84 37.525 L 76.84 37.525 L 76.84 37.525 Q 75.67 37.525 74.973 38.313 L 74.973 38.313 L 74.973 38.313 Q 74.275 39.1 74.275 40.18 L 74.275 40.18 L 74.275 40.18 Q 74.275 40.855 74.568 41.507 L 74.568 41.507 L 74.568 41.507 Q 74.86 42.16 75.58 42.79 L 75.58 42.79 L 80.17 47.02 L 80.17 47.02 Q 81.115 47.875 81.948 48.865 L 81.948 48.865 L 81.948 48.865 Q 82.78 49.855 83.32 51.115 L 83.32 51.115 L 83.32 51.115 Q 83.86 52.375 83.86 54.04 L 83.86 54.04 L 83.86 54.04 Q 83.86 56.245 82.96 57.73 L 82.96 57.73 L 82.96 57.73 Q 82.06 59.215 80.44 59.957 L 80.44 59.957 L 80.44 59.957 Q 78.82 60.7 76.66 60.7 Z " fill="rgb(0,0,0)"/></g></g></svg>